<?xml version="1.0" encoding="UTF-8"?>
<svg width="24px" height="24px" viewBox="0 0 24 24" version="1.1" xmlns="http://www.w3.org/2000/svg" xmlns:xlink="http://www.w3.org/1999/xlink">
    <!-- Generator: Sketch 53.2 (72643) - https://sketchapp.com -->
    <title>XMLID_9_</title>
    <desc>Created with Sketch.</desc>
    <defs>
        <path d="M11.06192,9.86 L12.98192,9.86 L12.98192,17.78 L11.06192,17.78 L11.06192,9.86 Z M11.06192,6.25232 L12.98192,6.25232 L12.98192,8.05232 L11.06192,8.05232 L11.06192,6.25232 Z M12,0 C5.373,0 0,5.373 0,12 C0,18.627 5.373,24 12,24 C18.627,24 24,18.627 24,12 C24,5.373 18.627,0 12,0 Z M12,22 C6.486,22 2,17.514 2,12 C2,6.486 6.486,2 12,2 C17.514,2 22,6.486 22,12 C22,17.514 17.514,22 12,22 Z" id="path-1"></path>
    </defs>
    <g id="Prioritisation-Rules" stroke="none" stroke-width="1" fill="none" fill-rule="evenodd">
        <mask id="mask-2" fill="white">
            <use xlink:href="#path-1"></use>
        </mask>
        <use id="XMLID_9_" fill="#0099CC" fill-rule="nonzero" transform="translate(12.000000, 12.000000) rotate(-180.000000) translate(-12.000000, -12.000000) " xlink:href="#path-1"></use>
    </g>
</svg>