<?xml version="1.0" encoding="UTF-8"?>
<svg width="46px" height="47px" viewBox="0 0 46 47" version="1.1" xmlns="http://www.w3.org/2000/svg" xmlns:xlink="http://www.w3.org/1999/xlink">
    <!-- Generator: Sketch 53.2 (72643) - https://sketchapp.com -->
    <title>Group</title>
    <desc>Created with Sketch.</desc>
    <g id="Claims-List" stroke="none" stroke-width="1" fill="none" fill-rule="evenodd">
        <g id="Claims-Backlog-Search&amp;Action_fail_xl" transform="translate(-697.000000, -445.000000)" fill="#658DA2">
            <g id="Group" transform="translate(697.000000, 445.000000)">
                <path d="M32.5269119,0.898984746 L35.7594001,4.13147289 L3.23248814,36.6583848 L-8.5975671e-13,33.4258967 L32.5269119,0.898984746 Z M33.0599892,10.5684482 C34.3259552,13.0123618 34.996643,15.7408252 34.996643,18.5721548 C34.996643,22.5799408 33.682412,26.334383 31.192992,29.4411791 L45.8571429,44.1008375 L43.0991625,46.8571429 L28.438821,32.1955796 C25.3322838,34.6852071 21.5781545,35.9995476 17.5707024,35.9995476 C14.7391108,35.9995476 12.0104129,35.3285679 9.56637321,34.0620642 L12.5028085,31.1256288 C14.0913568,31.7665755 15.8044161,32.1022424 17.5687977,32.1022424 C21.1819805,32.1022424 24.5799342,30.6945647 27.1341135,28.1401725 C29.6901974,25.5838755 31.0958531,22.1875435 31.0958531,18.5740596 C31.0958531,16.8099183 30.7603616,15.097081 30.119743,13.5086944 L33.0599892,10.5684482 Z M26.1135691,3.37273261 L23.214029,6.27227278 C21.4660381,5.4690113 19.5497658,5.04587691 17.5687977,5.04587691 C13.9556149,5.04587691 10.5576613,6.45355461 8.003482,9.00794676 C5.44930271,11.5623389 4.04174231,14.9605757 4.04174231,18.5740596 C4.04174231,20.5548057 4.4646761,22.4708758 5.2675652,24.2187366 L2.37129263,27.1150091 C0.916316766,24.5357494 0.142857143,21.6123764 0.142857143,18.57025 C0.142857143,13.9148179 1.95611492,9.53939747 5.24740636,6.24783175 C8.53869779,2.95626603 12.9137536,1.14285714 17.5687977,1.14285714 C20.6109554,1.14285714 23.5343473,1.91733958 26.1135691,3.37273261 Z" id="Combined-Shape"></path>
            </g>
        </g>
    </g>
</svg>