<?xml version="1.0" encoding="UTF-8"?>
<svg width="24px" height="22px" viewBox="0 0 24 22" version="1.1" xmlns="http://www.w3.org/2000/svg" xmlns:xlink="http://www.w3.org/1999/xlink">
    <!-- Generator: Sketch 53.2 (72643) - https://sketchapp.com -->
    <title>Shape Copy</title>
    <desc>Created with Sketch.</desc>
    <g id="Updated-nav-with-logo" stroke="none" stroke-width="1" fill="none" fill-rule="evenodd">
        <g id="COMPONENTS/768/Navigation/FCA/top" transform="translate(-704.000000, -26.000000)" fill="#9AB4C3" fill-rule="nonzero">
            <g id="Group-3">
                <path d="M718.4,44.98624 C718.4,45.51552 717.96928,45.94624 717.44,45.94624 L706.24,45.94624 C705.71072,45.94624 705.28,45.51552 705.28,44.98624 L705.28,28.24 C705.28,27.71072 705.71072,27.28 706.24,27.28 L717.44,27.28 C717.96928,27.28 718.4,27.71072 718.4,28.24 L718.4,33.19072 L719.68,33.19072 L719.68,28.24 C719.68,27.00512 718.67488,26 717.44,26 L706.24,26 C705.00512,26 704,27.00512 704,28.24 L704,44.98624 C704,46.22112 705.00512,47.22624 706.24,47.22624 L717.44,47.22624 C718.67488,47.22624 719.68,46.22112 719.68,44.98624 L719.68,40.03552 L718.4,40.03552 L718.4,44.98624 Z M722.67808,31.56 L721.77312,32.46496 L725.28096,35.97312 L710.50624,35.97312 L710.50624,37.25312 L725.2816,37.25312 L721.77312,40.7616 L722.67808,41.66656 L727.7312,36.61344 L722.67808,31.56 Z" id="Shape-Copy"></path>
            </g>
        </g>
    </g>
</svg>