<svg width="317" height="78" viewBox="0 0 317 78" fill="none" xmlns="http://www.w3.org/2000/svg">
<ellipse cx="37.0222" cy="38.8781" rx="36.766" ry="38.2031" fill="#5E77FF"/>
<path d="M25.5328 23.1642C25.5328 22.612 25.9806 22.1642 26.5328 22.1642H37.0003C42.1067 22.1642 46.0605 23.6197 48.8617 26.5305C51.6921 29.4414 53.1073 33.5416 53.1073 38.8312C53.1073 44.1521 51.6921 48.2836 48.8617 51.2257C46.0605 54.1366 42.1067 55.592 37.0003 55.592H26.5328C25.9806 55.592 25.5328 55.1443 25.5328 54.592V23.1642Z" fill="url(#paint0_linear)"/>
<path d="M109.004 18.976H122.628C128.695 18.976 133.392 20.588 136.72 23.812C140.083 27.036 141.764 31.5773 141.764 37.436C141.764 43.3293 140.083 47.9053 136.72 51.164C133.392 54.388 128.695 56 122.628 56H109.004V18.976ZM122.212 50.54C130.74 50.54 135.004 46.172 135.004 37.436C135.004 28.7693 130.74 24.436 122.212 24.436H115.712V50.54H122.212ZM173.561 29.74V56H167.165V51.788C166.368 53.244 165.224 54.388 163.733 55.22C162.243 56.0173 160.544 56.416 158.637 56.416C156.349 56.416 154.321 55.8613 152.553 54.752C150.785 53.6427 149.416 52.0653 148.445 50.02C147.475 47.9747 146.989 45.6 146.989 42.896C146.989 40.192 147.475 37.8 148.445 35.72C149.451 33.6053 150.837 31.976 152.605 30.832C154.373 29.6533 156.384 29.064 158.637 29.064C160.544 29.064 162.243 29.48 163.733 30.312C165.224 31.1093 166.368 32.236 167.165 33.692V29.74H173.561ZM160.405 51.32C162.555 51.32 164.219 50.5747 165.397 49.084C166.576 47.5933 167.165 45.496 167.165 42.792C167.165 40.0187 166.576 37.8867 165.397 36.396C164.219 34.9053 162.537 34.16 160.353 34.16C158.204 34.16 156.523 34.94 155.309 36.5C154.131 38.0253 153.541 40.1573 153.541 42.896C153.541 45.6 154.131 47.68 155.309 49.136C156.523 50.592 158.221 51.32 160.405 51.32ZM190.561 56.416C185.811 56.416 182.033 55.3067 179.225 53.088L181.045 48.512C183.853 50.592 187.059 51.632 190.665 51.632C192.225 51.632 193.421 51.372 194.253 50.852C195.119 50.332 195.553 49.604 195.553 48.668C195.553 47.8707 195.258 47.2467 194.669 46.796C194.079 46.3107 193.074 45.8947 191.653 45.548L187.285 44.56C182.501 43.52 180.109 41.076 180.109 37.228C180.109 35.6333 180.559 34.2293 181.461 33.016C182.362 31.768 183.627 30.7973 185.257 30.104C186.886 29.4107 188.775 29.064 190.925 29.064C192.797 29.064 194.599 29.3587 196.333 29.948C198.066 30.5027 199.591 31.3173 200.909 32.392L198.985 36.812C196.35 34.8707 193.646 33.9 190.873 33.9C189.382 33.9 188.221 34.1773 187.389 34.732C186.557 35.2867 186.141 36.0493 186.141 37.02C186.141 37.7827 186.383 38.3893 186.869 38.84C187.389 39.2907 188.255 39.672 189.469 39.984L193.941 40.972C196.541 41.5613 198.43 42.48 199.609 43.728C200.822 44.9413 201.429 46.536 201.429 48.512C201.429 50.9387 200.458 52.8627 198.517 54.284C196.575 55.7053 193.923 56.416 190.561 56.416ZM222.319 29.064C228.594 29.064 231.731 32.6693 231.731 39.88V56H225.231V40.192C225.231 38.112 224.833 36.604 224.035 35.668C223.238 34.6973 222.007 34.212 220.343 34.212C218.367 34.212 216.773 34.8533 215.559 36.136C214.346 37.384 213.739 39.048 213.739 41.128V56H207.291V17.728H213.739V33.536C214.641 32.1147 215.837 31.0227 217.327 30.26C218.818 29.4627 220.482 29.064 222.319 29.064ZM256.863 56L245.371 43.884V56H238.923V17.728H245.371V41.336L256.187 29.792H264.039L252.235 42.324L264.975 56H256.863ZM267.864 29.74H274.312V56H267.864V29.74ZM274.676 17.832V24.228H267.448V17.832H274.676ZM289.991 34.628V46.38C289.991 49.4653 291.429 51.008 294.307 51.008C295.104 51.008 295.971 50.8693 296.907 50.592V55.74C295.763 56.156 294.376 56.364 292.747 56.364C289.765 56.364 287.477 55.532 285.883 53.868C284.288 52.204 283.491 49.812 283.491 46.692V34.628H278.447V29.74H283.491V23.344L289.991 21.16V29.74H296.959V34.628H289.991Z" fill="#7A8497"/>
<defs>
<linearGradient id="paint0_linear" x1="25.5328" y1="22.1642" x2="54.3329" y2="54.5004" gradientUnits="userSpaceOnUse">
<stop stop-color="white" stop-opacity="0.7"/>
<stop offset="1" stop-color="white"/>
</linearGradient>
</defs>
</svg>
